<?xml version="1.0" encoding="UTF-8"?>
<svg id="_x2014_лой_x5F_1" xmlns="http://www.w3.org/2000/svg" version="1.1" viewBox="0 0 47.08 42.9">
  <!-- Generator: Adobe Illustrator 30.5.1, SVG Export Plug-In . SVG Version: 2.1.4 Build 3)  -->
  <defs>
    <style>
      .st0 {
        fill: #ffcd4f;
      }
    </style>
  </defs>
  <path class="st0" d="M16.93,37.92c-.31-.23-.6-.4-.9-.51-.3-.11-.62-.16-.95-.18-.66-.03-1.37.09-2.06.26-.69.17-1.34.37-1.83.54-.48.16-.8.29-.8.29,0,0,.31.18.81.39.5.21,1.19.45,1.94.58.75.13,1.56.15,2.27-.06.71-.2,1.31-.63,1.51-1.32Z"/>
  <path class="st0" d="M14.83,34.88c.27.6.65,1.19,1.16,1.57.25.19.54.33.84.39.3.06.63.04.94-.09.02-.72-.18-1.28-.49-1.78-.31-.49-.74-.92-1.2-1.29-.45-.37-.91-.67-1.26-.89-.35-.22-.59-.35-.59-.35,0,0,0,.08.02.21.01.13.04.33.07.56.08.46.22,1.07.49,1.67Z"/>
  <path class="st0" d="M9.9,36.48c.69-.03,1.29-.3,1.72-.87-.34-.61-.86-.94-1.48-1.13-.62-.19-1.34-.24-2.05-.26-.71-.02-1.41,0-1.94,0-.54.01-.88.02-.88.02,0,0,.07.07.19.19.12.11.3.28.52.46.45.37,1.08.8,1.77,1.11.7.32,1.46.52,2.14.48Z"/>
  <path class="st0" d="M11.21,33.77c.39.49.93.82,1.61.78.27-.66.23-1.29.04-1.87-.19-.58-.52-1.11-.85-1.57-.34-.46-.68-.85-.93-1.14-.12-.14-.23-.25-.3-.33-.07-.08-.11-.12-.11-.12,0,0-.02.07-.06.2-.03.13-.07.31-.11.53-.07.45-.11,1.06,0,1.71.09.64.32,1.3.71,1.8Z"/>
  <path class="st0" d="M2.8,28.85c-.49-.15-.8-.24-.8-.24,0,0,.03.08.09.22.07.13.16.32.29.55.13.22.28.48.46.75.09.14.18.27.28.41l.08.11.1.13c.07.09.14.17.21.26.57.68,1.27,1.19,1.96,1.41.69.22,1.36.15,1.93-.28-.16-.69-.55-1.15-1.07-1.56-.13-.1-.27-.2-.41-.3-.14-.1-.29-.19-.45-.28-.15-.1-.31-.19-.47-.28-.15-.08-.3-.16-.46-.23-.62-.29-1.25-.52-1.74-.67Z"/>
  <path class="st0" d="M7.57,30.06c.18.59.61,1.08,1.26,1.23.45-.55.6-1.16.63-1.73.03-.57-.04-1.11-.1-1.57-.02-.19-.1-.52-.17-.77-.07-.26-.15-.5-.23-.7-.07-.2-.14-.36-.19-.47-.04-.11-.07-.18-.07-.18,0,0-.05.06-.12.18-.08.12-.17.28-.28.49-.21.41-.47.99-.65,1.62-.05.16-.08.32-.12.49-.03.15-.05.31-.07.47,0,.16,0,.32.01.48.02.16.05.31.09.46Z"/>
  <path class="st0" d="M2.06,26.44c.11.14.24.26.38.37.13.11.27.22.41.31.57.36,1.19.52,1.88.32.06-.34.03-.65-.06-.94-.04-.14-.11-.28-.18-.42-.07-.13-.17-.26-.25-.39-.37-.51-.94-.95-1.51-1.35-.56-.4-1.14-.74-1.59-.99-.46-.25-.75-.4-.75-.4,0,0,.01.09.05.24.04.15.1.35.19.6.17.5.41,1.16.8,1.77.19.31.4.61.63.88Z"/>
  <path class="st0" d="M5.76,26.17c.13.27.33.51.6.7.62-.36.98-.89,1.16-1.47.05-.15.08-.29.11-.44.01-.07.03-.15.04-.22,0-.08.02-.15.03-.23.04-.31.05-.61.04-.91-.04-.59-.07-1.14-.15-1.54-.03-.2-.07-.37-.1-.48-.02-.12-.03-.18-.03-.18,0,0-.06.05-.15.15-.1.1-.22.24-.37.41-.29.36-.65.87-.95,1.46-.28.58-.46,1.25-.45,1.87,0,.16.02.31.06.45.04.15.09.29.15.42Z"/>
  <path class="st0" d="M.87,20.8c.09.16.18.31.28.45.11.14.23.27.35.39.49.47,1.08.75,1.79.68.12-.32.16-.64.12-.93-.02-.15-.05-.3-.1-.44-.05-.15-.09-.29-.16-.43-.13-.29-.31-.57-.52-.84-.11-.14-.22-.27-.32-.41-.11-.13-.22-.26-.34-.39-.46-.51-.98-.98-1.34-1.33C.26,17.19,0,16.97,0,16.97c0,0,0,.35.02.89.02.27.07.58.13.91.03.17.07.34.11.51.04.17.08.35.15.52.13.35.27.69.45,1.01Z"/>
  <path class="st0" d="M4.97,21.94c.68-.23,1.13-.68,1.43-1.2.08-.13.14-.26.2-.4.07-.14.12-.28.17-.42.1-.28.17-.57.22-.85.05-.28.11-.55.14-.8.02-.13.03-.25.03-.36,0-.11.01-.22.03-.32.04-.39.04-.64.04-.64,0,0-.26.14-.64.41-.09.07-.19.14-.3.23-.11.08-.21.18-.32.27-.21.2-.42.42-.63.67-.1.13-.2.26-.29.39-.04.07-.09.14-.13.21-.04.07-.08.14-.11.21-.14.29-.25.59-.31.89-.03.15-.05.3-.04.45,0,.15.03.3.07.44.08.29.23.56.46.79Z"/>
  <path class="st0" d="M2.51,13.38c-.16-.3-.33-.6-.5-.88-.17-.28-.33-.53-.46-.74-.27-.43-.46-.71-.46-.71,0,0-.1.34-.21.86-.04.27-.08.58-.1.91-.01.17-.02.34-.03.52,0,.18.01.36.03.55.03.37.08.74.17,1.09.1.35.24.68.41.97.34.58.88.98,1.58,1.08.09-.14.16-.29.21-.43.05-.15.1-.29.12-.44.05-.3.03-.6-.05-.91-.06-.31-.15-.62-.29-.94-.13-.31-.3-.63-.45-.94Z"/>
  <path class="st0" d="M6.34,16.08c.21-.21.39-.44.54-.69.17-.24.31-.49.43-.74.06-.12.11-.25.17-.37.06-.12.11-.24.16-.35.1-.23.16-.44.23-.62.14-.36.2-.61.2-.61,0,0-.29.07-.72.23-.44.16-.97.43-1.5.8-.13.09-.27.19-.38.3-.12.11-.23.22-.34.34-.21.24-.4.5-.53.78-.12.28-.19.57-.19.87,0,.15.01.29.06.44.05.15.11.29.2.43.71-.07,1.23-.4,1.66-.81Z"/>
  <path class="st0" d="M4.26,11.51c.09-.12.17-.25.23-.39.06-.14.1-.28.13-.43.03-.15.04-.3.06-.46.02-.31,0-.64-.05-.98s-.11-.67-.2-1.01c-.17-.67-.36-1.31-.53-1.79-.17-.48-.28-.79-.28-.79,0,0-.05.07-.12.21-.07.14-.17.33-.27.57-.23.47-.45,1.15-.6,1.86-.06.36-.1.73-.1,1.09,0,.18.01.36.04.53.03.18.06.34.11.5.1.32.23.61.45.86.21.25.48.45.8.59.13-.11.23-.23.32-.36Z"/>
  <path class="st0" d="M9.87,8.94c.06-.1.09-.15.09-.15,0,0-.08,0-.21,0-.14,0-.32.02-.55.05-.23.03-.49.07-.78.14-.14.03-.29.07-.44.11-.14.05-.29.1-.44.16-.29.12-.6.26-.86.44-.26.18-.5.39-.7.62-.1.11-.18.24-.25.37-.06.13-.12.27-.15.41-.04.14-.05.29-.05.44,0,.15.04.31.09.46.35.06.68.04.97-.02.29-.07.58-.18.84-.32.13-.07.25-.16.37-.24.06-.04.11-.09.17-.14.06-.05.12-.09.17-.14.22-.19.42-.4.6-.61.19-.21.36-.42.5-.62.04-.05.07-.1.1-.15.04-.05.07-.1.1-.14.07-.09.13-.18.18-.26.11-.16.19-.3.25-.4Z"/>
  <path class="st0" d="M6.19,7.16c.3-.15.53-.36.7-.6.18-.23.31-.51.4-.81.18-.59.21-1.29.21-1.97,0-.17,0-.34-.02-.51,0-.16-.02-.33-.03-.48-.02-.31-.05-.61-.08-.86-.05-.49-.11-.82-.11-.82,0,0-.06.06-.16.17-.1.11-.24.27-.39.48-.15.21-.33.45-.5.73-.16.28-.33.59-.47.92-.14.33-.26.67-.34,1.02-.08.35-.11.7-.09,1.03.04.67.31,1.27.87,1.7Z"/>
  <path class="st0" d="M11.16,6.8c.23-.17.45-.33.63-.5.19-.17.37-.32.5-.46.14-.14.26-.25.34-.34.08-.08.12-.13.12-.13,0,0-.29-.07-.76-.11-.23-.02-.49-.03-.79-.03s-.61.02-.92.07c-.63.09-1.27.31-1.76.67-.24.19-.44.41-.58.66-.13.26-.2.56-.18.88.66.29,1.28.26,1.84.1.29-.08.56-.2.82-.34.26-.14.51-.3.73-.47Z"/>
  <path class="st0" d="M9.89,33.66c1.87,1.55,4.15,2.61,6.38,3.51,1.83.74,4.18,1.95,6.57,3.08-2.15.67-4.27,1.22-5.98,1.5-.22.04.92,1.2,1.14,1.14,1.98-.6,3.99-1.32,5.97-2.12,2.16.98,4.3,1.83,6.06,2.12.22.04.91-1.14.69-1.18-1.67-.28-3.6-.77-5.62-1.41,3.32-1.39,6.52-2.97,9.28-4.48,3-1.64,5.25-3.96,6.74-7.04,1.37-2.86,2.34-6.02,2.48-9.19.2-4.39-1.28-8.71-3.57-12.41-.67-1.08-1.42-2.17-2.25-3.17.07-.28.08-.55.03-.81-.06-.3-.17-.59-.35-.85-.35-.53-.91-.96-1.49-1.28-.58-.32-1.18-.52-1.64-.63-.23-.06-.41-.09-.54-.1-.07,0-.12-.01-.15-.02-.03,0-.05,0-.05,0,0,0,0,.02.02.05.02.03.04.08.07.13.06.12.14.28.25.48.21.4.51.92.85,1.43.17.26.37.5.57.73.1.11.21.22.32.32.11.1.22.2.34.28.24.16.5.3.79.37.22.05.45.08.69.06,1.6,1.89,2.9,4.08,3.9,6.28,1.27,2.8,1.94,5.85,1.87,8.93-.08,3.35-1.2,6.76-2.7,9.74-1.17,2.32-2.88,4.21-5.06,5.62-1.95,1.26-4.09,2.21-6.21,3.13-1.59.69-3.48,1.4-5.4,2.03-4.11-1.37-8.4-3.23-11.37-4.91-1.55-.88-2.96-1.95-4.13-3.31-1.16-1.36-2-2.97-2.67-4.61-1.28-3.12-2.09-6.35-1.89-9.74.23-3.95,1.78-7.73,3.95-11.01.56-.84,1.16-1.68,1.81-2.47.24.01.46-.01.67-.06.29-.07.54-.21.79-.37.12-.08.23-.18.34-.28.11-.1.22-.21.32-.32.2-.23.39-.48.57-.73.35-.51.64-1.03.85-1.43.11-.2.19-.37.25-.48.03-.06.05-.1.07-.13.01-.03.02-.04.02-.04,0,0-.02,0-.05,0-.03,0-.08,0-.15.02-.13.02-.32.05-.54.11-.45.11-1.05.31-1.64.63-.58.32-1.14.75-1.49,1.28-.18.26-.3.55-.35.85-.05.25-.04.52.03.79-1.53,1.81-2.79,3.9-3.77,6-1.21,2.59-1.94,5.39-2.05,8.24-.12,3.28.77,6.43,2,9.44.99,2.42,2.41,4.62,4.43,6.31Z"/>
  <path class="st0" d="M33.93,39.63c.75-.13,1.44-.37,1.94-.58.5-.21.81-.39.81-.39,0,0-.32-.13-.8-.29-.49-.17-1.14-.37-1.82-.54-.69-.17-1.4-.29-2.06-.26-.33.01-.64.07-.95.18-.3.11-.59.27-.9.51.2.69.8,1.12,1.51,1.32.71.21,1.53.19,2.27.06Z"/>
  <path class="st0" d="M30.24,37.16c.3-.06.58-.2.84-.39.51-.38.9-.97,1.16-1.57.27-.6.41-1.21.49-1.67.04-.23.06-.42.07-.56.01-.13.02-.21.02-.21,0,0-.24.13-.58.34-.35.22-.81.53-1.26.89-.45.37-.89.79-1.2,1.29-.31.5-.5,1.06-.48,1.78.31.13.64.15.94.09Z"/>
  <path class="st0" d="M38.98,34.55c-.71.02-1.43.07-2.05.26-.62.19-1.14.52-1.48,1.13.42.57,1.03.84,1.72.87.69.03,1.45-.17,2.14-.48.7-.32,1.33-.74,1.77-1.11.22-.18.4-.35.52-.46.12-.12.19-.19.19-.19,0,0-.34,0-.88-.02-.53,0-1.23-.02-1.94,0Z"/>
  <path class="st0" d="M34.26,34.88c.67.04,1.22-.29,1.61-.78.39-.5.62-1.15.71-1.8.09-.65.06-1.26-.01-1.71-.03-.22-.07-.41-.11-.53-.03-.13-.06-.2-.06-.2,0,0-.04.04-.11.12-.08.08-.18.19-.3.33-.25.28-.59.67-.93,1.14-.33.46-.66.99-.85,1.57-.18.58-.23,1.21.04,1.87Z"/>
  <path class="st0" d="M43.57,31.37c.07-.08.14-.17.21-.26l.1-.13.08-.11c.1-.14.2-.28.28-.41.18-.27.33-.53.46-.75.12-.22.22-.41.29-.55.06-.14.09-.22.09-.22,0,0-.31.09-.8.24-.48.15-1.12.38-1.73.67-.16.07-.31.15-.46.23-.16.09-.32.19-.47.28-.15.09-.31.19-.45.28-.14.1-.29.19-.41.29-.52.41-.91.87-1.07,1.56.57.43,1.24.5,1.93.28.69-.22,1.39-.73,1.96-1.41Z"/>
  <path class="st0" d="M39.43,28.5c-.18-.64-.44-1.21-.66-1.62-.11-.21-.2-.37-.28-.49-.08-.12-.12-.18-.12-.18,0,0-.03.06-.07.18-.05.11-.12.27-.19.47-.07.2-.15.43-.23.7-.07.25-.15.58-.17.77-.06.45-.13,1-.1,1.57.04.57.18,1.18.63,1.73.65-.15,1.08-.64,1.26-1.23.04-.15.08-.3.1-.46.01-.16.02-.32,0-.48-.01-.16-.04-.32-.07-.47-.03-.17-.07-.33-.12-.49Z"/>
  <path class="st0" d="M46.64,23.52c.04-.15.05-.23.05-.23,0,0-.29.15-.75.4-.45.25-1.03.59-1.59.99-.58.39-1.14.84-1.51,1.35-.09.13-.18.26-.26.39-.08.13-.14.27-.18.42-.09.29-.12.6-.06.94.68.2,1.31.05,1.88-.32.14-.09.28-.19.41-.31.13-.11.26-.24.38-.37.23-.27.44-.57.63-.88.39-.61.63-1.28.8-1.77.08-.25.15-.46.19-.6Z"/>
  <path class="st0" d="M40.72,27.21c.27-.19.47-.43.6-.7.07-.13.12-.27.15-.42.04-.15.06-.3.06-.45,0-.63-.18-1.29-.46-1.88-.3-.59-.66-1.1-.95-1.45-.15-.18-.27-.32-.37-.42-.09-.1-.15-.15-.15-.15,0,0-.01.07-.03.18-.03.11-.06.28-.1.48-.08.4-.11.95-.15,1.54-.01.29,0,.6.04.91.01.08.02.15.03.23s.02.15.03.23c.03.15.06.3.11.44.19.58.54,1.11,1.16,1.47Z"/>
  <path class="st0" d="M45.11,19.2c-.12.13-.23.26-.34.39-.11.13-.22.27-.33.4-.21.27-.39.55-.52.84-.07.14-.12.29-.16.43-.05.15-.08.29-.1.44-.03.3,0,.61.12.93.71.07,1.3-.2,1.79-.68.12-.12.24-.25.35-.39.11-.14.19-.29.28-.45.17-.32.32-.66.45-1.01.07-.17.11-.35.15-.52.04-.17.08-.34.11-.51.06-.33.12-.64.13-.91.03-.53.02-.89.02-.89,0,0-.26.22-.63.57-.36.35-.87.82-1.33,1.33Z"/>
  <path class="st0" d="M42.56,21.48c.04-.14.06-.29.07-.44,0-.15-.02-.3-.05-.46-.06-.3-.17-.61-.31-.9-.04-.07-.07-.14-.11-.21-.04-.07-.09-.14-.13-.21-.09-.14-.19-.27-.29-.39-.2-.25-.42-.48-.63-.67-.1-.1-.21-.19-.32-.27-.1-.08-.21-.16-.3-.23-.38-.27-.64-.42-.64-.42,0,0,0,.26.04.65.02.1.02.2.03.32,0,.11.02.23.04.36.03.25.08.52.14.8.05.28.12.57.22.85.05.14.11.28.17.42.06.14.12.27.2.4.3.52.75.97,1.42,1.2.23-.24.38-.51.46-.79Z"/>
  <path class="st0" d="M43.82,15.58c-.07.31-.09.61-.04.91.02.15.07.29.12.44.05.15.12.29.21.43.7-.1,1.25-.5,1.58-1.08.17-.29.31-.62.42-.97.09-.35.14-.72.17-1.09.01-.18.03-.37.03-.55,0-.18-.02-.35-.03-.52-.03-.34-.06-.65-.1-.91-.11-.52-.21-.86-.21-.86,0,0-.19.28-.46.71-.13.21-.29.46-.46.74-.17.28-.34.57-.49.88-.15.3-.32.62-.45.93-.13.32-.23.63-.29.94Z"/>
  <path class="st0" d="M42.48,15.49c-.13-.28-.32-.54-.53-.78-.11-.12-.22-.24-.34-.34-.12-.11-.25-.21-.38-.3-.53-.37-1.06-.64-1.5-.8-.43-.16-.72-.23-.72-.23,0,0,.06.25.2.6.06.18.13.4.23.63.05.11.1.23.16.35.06.12.1.25.17.37.12.25.26.5.43.74.15.24.33.48.54.69.44.41.95.74,1.66.81.09-.14.15-.28.2-.43.05-.15.06-.29.06-.44,0-.29-.07-.59-.19-.86Z"/>
  <path class="st0" d="M43.45,6s-.12.31-.28.79c-.17.48-.35,1.12-.53,1.79-.08.34-.14.67-.19,1.01-.05.34-.08.67-.05.98.02.15.03.31.06.46.03.15.07.29.13.43.06.14.13.27.23.39.09.13.19.25.32.36.33-.14.6-.34.81-.59.21-.25.35-.54.45-.86.05-.16.08-.33.11-.5.02-.17.04-.35.04-.53,0-.36-.04-.73-.1-1.09-.14-.71-.37-1.39-.6-1.86-.11-.24-.2-.44-.27-.57-.07-.13-.12-.2-.12-.2Z"/>
  <path class="st0" d="M41.33,11.01c-.07-.13-.14-.26-.25-.37-.2-.23-.44-.44-.7-.62-.26-.18-.57-.32-.86-.44-.15-.06-.3-.11-.44-.16-.14-.05-.3-.08-.44-.11-.28-.07-.55-.11-.77-.14-.23-.03-.41-.04-.55-.05-.14,0-.21,0-.21,0,0,0,.03.06.09.15.06.1.14.24.25.4.05.08.11.17.18.26.03.05.07.09.11.14.03.05.07.1.1.15.14.2.31.41.5.62.17.21.37.42.6.61.06.05.12.09.17.14.06.05.11.09.17.14.12.09.24.17.37.24.25.15.54.26.84.33.3.07.62.08.97.02.05-.16.08-.31.08-.46,0-.15-.02-.29-.05-.44-.04-.14-.09-.28-.15-.41Z"/>
  <path class="st0" d="M40.88,7.49c.57-.43.83-1.03.87-1.69.02-.33-.02-.68-.09-1.03-.08-.35-.2-.69-.34-1.02-.14-.33-.31-.63-.47-.92-.16-.28-.34-.52-.49-.73-.15-.21-.29-.37-.39-.48-.1-.11-.15-.17-.15-.17,0,0-.05.33-.11.82-.03.25-.06.55-.08.86-.01.16-.02.32-.03.48,0,.17-.02.34-.02.51,0,.68.02,1.38.2,1.98.09.3.21.57.4.81.17.24.4.44.71.6Z"/>
  <path class="st0" d="M38.55,6.3c-.49-.36-1.13-.58-1.76-.67-.31-.05-.63-.07-.92-.07-.29,0-.56.01-.79.03-.46.05-.75.11-.75.11,0,0,.04.05.12.13.08.08.2.19.34.34.14.14.32.29.51.46.19.17.4.34.63.5.23.17.47.33.73.46.25.14.53.26.81.34.57.17,1.18.19,1.84-.1.02-.33-.05-.62-.18-.88-.14-.25-.34-.47-.58-.66Z"/>
</svg>