<?xml version="1.0" encoding="UTF-8"?>
<svg id="_x2014_лой_x5F_1" xmlns="http://www.w3.org/2000/svg" version="1.1" viewBox="0 0 49.28 46.34">
  <!-- Generator: Adobe Illustrator 30.5.1, SVG Export Plug-In . SVG Version: 2.1.4 Build 3)  -->
  <g>
    <g>
      <path d="M7.99,4.57c-.1.81-.4,1.64-.68,2.27-.13.32-.27.58-.36.77-.09.19-.16.3-.16.3,0,0-.28-.2-.55-.61-.28-.41-.55-1.04-.5-1.89.04-.85.44-1.75.83-2.42.1-.17.2-.32.29-.45.09-.14.18-.25.26-.35.15-.19.25-.3.25-.3,0,0,.22.27.4.74.09.24.17.52.22.85.05.33.06.7,0,1.11Z"/>
      <path d="M4.6,10.55c.14.89.05,1.85-.05,2.6-.02.19-.05.36-.08.52-.02.16-.05.29-.07.41-.05.23-.08.37-.08.37,0,0-.35-.13-.77-.49-.21-.18-.43-.41-.63-.72-.19-.3-.37-.68-.46-1.15-.2-.92-.05-1.99.17-2.8.11-.41.23-.76.33-1,.1-.25.17-.39.17-.39,0,0,.08.05.2.16.12.11.28.27.45.5.17.22.34.5.49.83.15.33.28.72.34,1.17Z"/>
      <path d="M2.87,17.21c.4.91.6,1.95.75,2.77.04.21.06.4.09.57.03.17.05.32.07.45.03.25.04.41.04.41,0,0-.1,0-.28-.04-.17-.03-.41-.09-.69-.2-.28-.12-.59-.29-.91-.55-.31-.26-.6-.61-.87-1.08-.51-.94-.67-2.16-.66-3.11,0-.24,0-.46.02-.66.02-.2.03-.38.05-.52.04-.29.07-.46.07-.46,0,0,.39.14.86.52.23.19.5.44.75.75.25.31.49.69.69,1.15Z"/>
      <path d="M3.22,24.16c.74.8,1.31,1.79,1.76,2.57.05.1.1.2.15.29.05.09.1.18.14.26.09.16.17.31.23.44.12.25.2.4.2.4,0,0-.11.03-.3.06-.19.03-.46.06-.79.05-.64-.04-1.54-.25-2.39-1.02-.85-.78-1.48-1.97-1.81-2.98-.09-.25-.15-.49-.21-.71-.05-.22-.1-.41-.13-.57-.06-.33-.08-.53-.08-.53,0,0,.11,0,.3.04.19.04.46.11.77.22.3.12.67.29,1.04.54.18.12.37.26.55.42.19.15.38.33.57.53Z"/>
      <path d="M5.78,30.63c.13.07.25.15.38.22.13.08.25.16.37.24.24.17.47.35.7.52.11.09.22.18.33.27.05.05.11.09.16.14.06.04.11.09.16.13.21.18.4.35.58.51.37.32.66.62.88.82.22.2.34.34.34.34,0,0-.1.07-.28.17-.18.1-.45.22-.79.32-.34.1-.76.17-1.23.15-.47-.02-1.02-.12-1.58-.37-1.15-.51-2.2-1.54-2.88-2.46-.18-.23-.32-.46-.45-.66-.13-.21-.25-.39-.33-.55-.17-.32-.26-.51-.26-.51,0,0,.12-.03.33-.06.21-.02.51-.05.86-.02.18,0,.37.03.58.06.21.03.43.08.66.14.23.06.47.14.71.25.25.1.5.22.76.36Z"/>
      <path d="M10.24,36c.63.12,1.24.31,1.83.5.29.11.58.21.85.31.14.05.27.11.4.16.13.05.26.1.38.14.48.2.9.36,1.2.5.14.07.27.11.35.15.08.03.12.05.12.05,0,0-.07.11-.21.28-.14.17-.36.4-.67.63-.3.22-.69.45-1.18.61-.25.09-.52.14-.81.18-.29.03-.62.05-.96.02-.34-.03-.69-.09-1.04-.18-.34-.1-.69-.22-1.02-.35-.33-.15-.65-.31-.96-.48-.3-.17-.58-.36-.84-.54-.07-.04-.13-.09-.19-.13-.06-.05-.12-.09-.18-.14-.12-.09-.22-.18-.33-.26-.21-.17-.39-.32-.53-.46-.28-.27-.44-.44-.44-.44,0,0,.11-.07.32-.17.2-.09.5-.21.88-.31.19-.05.39-.09.62-.12.23-.04.47-.06.72-.07.26-.01.53,0,.81.01.29.02.59.05.9.11Z"/>
      <path d="M16.31,39.59c.34-.07.68-.11,1.02-.14.34-.04.68-.07,1.01-.08.33-.03.66-.04.97-.04.31-.02.61-.03.89-.03.56-.03,1.04-.02,1.38-.04.34,0,.55,0,.55,0,0,0-.02.14-.08.37-.07.23-.18.54-.38.9-.1.18-.22.37-.37.56-.07.1-.16.19-.24.29-.09.09-.18.18-.29.28-.21.18-.45.36-.73.52-.28.16-.6.29-.96.41-.36.12-.74.19-1.14.24-.4.06-.8.06-1.2.05-.4,0-.8-.05-1.18-.11-.39-.05-.75-.14-1.09-.23-.17-.04-.34-.09-.49-.14-.15-.05-.3-.1-.44-.15-.28-.1-.53-.19-.73-.28-.4-.18-.63-.3-.63-.3,0,0,.09-.11.26-.28.17-.17.44-.39.79-.62.35-.22.79-.47,1.3-.68.51-.2,1.11-.39,1.78-.5Z"/>
    </g>
    <path d="M9.29,5.56c-.73.27-1.37.86-1.81,1.38-.22.26-.39.5-.5.68-.11.18-.18.29-.18.29,0,0,.32.12.81.15.49.03,1.14-.01,1.82-.31.68-.31,1.28-.79,1.72-1.19.11-.1.21-.19.3-.28.09-.09.17-.16.23-.23.13-.13.2-.21.2-.21,0,0-.28-.2-.74-.34-.23-.07-.51-.13-.82-.13-.31,0-.66.04-1.02.18Z"/>
    <path d="M6.28,11.21c-.7.51-1.21,1.32-1.52,2-.08.17-.15.33-.2.48-.05.15-.1.28-.13.39-.07.22-.1.36-.1.36,0,0,.38.03.91-.07.27-.05.57-.14.88-.28.32-.14.64-.33.97-.58.63-.52,1.13-1.21,1.48-1.78.17-.28.32-.53.41-.71.09-.18.15-.29.15-.29,0,0-.09-.03-.25-.06-.16-.03-.38-.07-.65-.07-.27,0-.58.02-.91.11-.34.09-.68.25-1.04.5Z"/>
    <path d="M4.83,17.43c-.58.73-.89,1.74-.98,2.55-.02.2-.05.4-.05.57,0,.17,0,.33,0,.45,0,.26.02.41.02.41,0,0,.1-.02.27-.09.17-.06.4-.16.65-.31.26-.15.54-.34.82-.58.28-.25.57-.54.81-.9.5-.71.8-1.54,1.02-2.21.05-.17.1-.32.14-.46.04-.14.07-.27.09-.37.05-.21.08-.34.08-.34,0,0-.41-.03-.98.1-.29.07-.6.18-.93.36-.33.18-.65.44-.95.81Z"/>
    <path d="M5.32,23.69c-.35.95-.29,2.09-.09,2.96.02.11.05.22.07.32.03.1.06.19.08.28.06.18.11.34.16.47.05.13.09.23.12.3.03.07.05.11.05.11,0,0,.09-.06.24-.18.15-.12.34-.31.55-.55.43-.49.89-1.2,1.15-2.11.26-.91.27-1.85.26-2.58,0-.18,0-.35-.01-.51,0-.15-.02-.28-.03-.4,0-.22-.03-.36-.03-.36,0,0-.11.03-.29.09-.18.06-.42.17-.7.33-.28.16-.56.38-.84.68-.14.15-.27.31-.39.51-.12.19-.22.4-.3.64Z"/>
    <path d="M7.77,29.44c0,.14,0,.28,0,.41.01.14.03.27.05.41.04.27.11.55.2.81.04.13.09.26.14.39.03.06.05.13.08.19.03.06.06.12.08.18.11.24.23.46.35.67.26.4.5.75.7.97.19.23.32.36.32.36,0,0,.08-.1.18-.27.11-.18.24-.44.37-.76.13-.32.25-.7.34-1.13.09-.43.13-.89.11-1.4-.04-1.01-.34-1.97-.59-2.71-.07-.18-.12-.36-.18-.51-.06-.15-.12-.28-.16-.4-.09-.22-.15-.35-.15-.35,0,0-.1.06-.27.19s-.38.31-.61.57c-.11.13-.23.27-.34.43-.11.16-.21.34-.3.54-.09.2-.17.42-.23.65-.05.23-.09.48-.1.76Z"/>
    <path d="M11.86,34.11c.16.55.45,1.09.81,1.55.17.24.37.45.57.65.1.1.2.2.3.29.1.09.21.17.31.25.4.33.78.56,1.06.72.14.08.26.14.33.17s.12.06.12.06c0,0,.04-.12.07-.34.04-.22.08-.53.08-.9.01-.37,0-.81-.08-1.26-.04-.22-.08-.46-.14-.71-.06-.24-.14-.48-.24-.73-.39-.98-.97-1.82-1.46-2.47-.03-.04-.06-.08-.09-.12-.03-.04-.06-.08-.08-.12-.06-.07-.11-.14-.16-.21-.11-.13-.21-.24-.28-.34-.16-.19-.26-.3-.26-.3,0,0-.09.1-.21.28-.12.18-.29.44-.44.78-.07.17-.15.35-.21.55-.06.2-.1.41-.13.64-.03.23-.04.48-.02.74.02.25.07.52.15.8Z"/>
    <path d="M10.67,1.35c-.85.74-1.33,1.66-1.58,2.36-.06.18-.11.34-.15.48-.04.15-.06.28-.08.38-.04.21-.05.33-.05.33,0,0,.12-.04.31-.13.1-.05.21-.1.35-.17.13-.06.28-.14.44-.23.64-.34,1.43-.83,2.17-1.47.73-.65,1.31-1.36,1.75-1.92.11-.14.21-.27.29-.39.09-.12.17-.22.23-.3.12-.18.19-.28.19-.28,0,0-.12,0-.35,0-.11,0-.25,0-.4.02-.15.02-.33.04-.52.08-.19.03-.39.08-.61.15-.11.03-.22.07-.33.11-.11.05-.22.09-.33.14-.11.05-.23.11-.34.16-.11.06-.22.13-.34.2-.11.07-.23.15-.33.23-.11.08-.22.17-.32.26Z"/>
    <path d="M17.19,37.09c.18.24.4.46.63.68.24.19.5.38.76.54.27.15.55.29.83.41.28.11.56.2.82.28.53.13,1.01.22,1.35.24.34.03.55.03.55.03,0,0-.02-.14-.08-.37-.06-.23-.16-.55-.31-.92-.08-.18-.16-.38-.27-.58-.05-.1-.1-.2-.16-.3-.06-.1-.12-.21-.18-.32-.13-.21-.27-.42-.43-.63-.16-.2-.32-.42-.51-.62-.74-.8-1.58-1.38-2.26-1.83-.08-.05-.17-.1-.25-.15-.08-.05-.15-.1-.22-.14-.14-.09-.27-.16-.38-.23-.21-.13-.34-.19-.34-.19,0,0-.05.13-.12.35-.06.22-.14.54-.18.93-.04.39-.03.83.07,1.31.1.49.31.98.67,1.48Z"/>
  </g>
  <g>
    <path d="M23.48,44.67c.67-.88.96-2.07,1.07-3.02.05-.48.07-.89.06-1.19,0-.3-.02-.47-.02-.47,0,0-.49.11-1.12.46-.62.35-1.39.92-1.97,1.8-.58.88-.91,1.9-1.11,2.71-.05.2-.09.39-.13.55-.03.17-.07.31-.09.44-.05.25-.06.39-.06.39,0,0,.5.01,1.18-.18.34-.1.73-.25,1.11-.48.37-.24.77-.56,1.09-1.01Z"/>
    <path d="M25.68,44.67c-.67-.88-.96-2.07-1.07-3.02-.05-.48-.07-.89-.05-1.19,0-.3.02-.47.02-.47,0,0,.49.11,1.12.46.62.35,1.39.92,1.97,1.8.57.88.91,1.9,1.11,2.71.05.2.09.39.13.55.03.17.07.31.09.44.05.25.06.39.06.39,0,0-.5.01-1.18-.18-.34-.1-.73-.25-1.11-.48-.37-.24-.77-.56-1.09-1.01Z"/>
  </g>
  <g>
    <g>
      <path d="M39.87,5.82c.72.26,1.35.84,1.79,1.35.21.26.39.49.5.67.11.18.17.28.17.28,0,0-.32.12-.81.16-.49.04-1.14,0-1.81-.29-.67-.3-1.26-.76-1.69-1.15-.11-.1-.21-.19-.29-.27-.09-.08-.16-.16-.23-.22-.12-.13-.19-.21-.19-.21,0,0,.28-.2.73-.34.23-.07.51-.14.82-.14.3,0,.65.03,1.01.17Z"/>
      <path d="M42.89,11.35c.69.5,1.2,1.29,1.51,1.97.08.17.14.33.2.47.05.15.1.28.13.39.07.22.1.35.1.35,0,0-.38.04-.91-.07-.27-.05-.57-.14-.88-.27-.32-.13-.64-.32-.96-.57-.63-.51-1.12-1.19-1.47-1.74-.17-.28-.31-.52-.41-.7-.09-.18-.14-.29-.14-.29,0,0,.09-.03.25-.06.16-.03.38-.07.64-.07.27,0,.58.02.91.11.33.08.68.24,1.03.49Z"/>
      <path d="M44.38,17.46c.58.72.88,1.71.98,2.51.02.2.05.39.05.56,0,.17,0,.32,0,.45,0,.25-.02.4-.02.4,0,0-.1-.02-.27-.09-.17-.06-.4-.16-.65-.3-.26-.14-.54-.33-.82-.57-.29-.24-.57-.53-.81-.88-.5-.7-.8-1.51-1.01-2.17-.05-.16-.1-.32-.14-.46-.04-.14-.07-.26-.09-.37-.05-.21-.08-.33-.08-.33,0,0,.41-.04.98.09.29.06.61.17.93.36.33.18.65.44.95.79Z"/>
      <path d="M43.98,23.64c.35.94.3,2.07.1,2.93-.02.11-.04.21-.07.31-.03.1-.06.19-.08.28-.05.18-.11.33-.15.46-.04.13-.09.23-.12.3-.03.07-.05.11-.05.11,0,0-.09-.06-.24-.18-.15-.12-.34-.3-.55-.55-.43-.49-.89-1.19-1.15-2.09-.26-.9-.27-1.83-.27-2.55,0-.18,0-.35.01-.5,0-.15.02-.28.03-.39.01-.22.03-.35.03-.35,0,0,.11.02.29.09.18.07.42.17.7.32.28.16.56.38.84.67.14.15.27.31.39.5.11.19.22.4.31.63Z"/>
      <path d="M41.61,29.37c0,.13,0,.27,0,.41-.01.14-.03.27-.05.41-.04.27-.1.55-.19.8-.04.13-.09.26-.14.38-.02.06-.05.13-.07.19-.03.06-.06.12-.08.18-.11.24-.23.46-.35.67-.26.4-.49.75-.69.97-.19.23-.31.35-.31.35,0,0-.08-.09-.18-.27-.11-.18-.25-.43-.38-.75-.13-.32-.25-.7-.34-1.13-.09-.43-.13-.89-.12-1.4.04-1,.33-1.95.58-2.69.07-.18.12-.35.18-.5.06-.15.12-.28.16-.39.09-.22.15-.35.15-.35,0,0,.1.06.27.18.16.12.38.31.61.57.11.13.23.27.34.43.11.16.21.34.3.54.09.2.17.41.23.65.06.23.09.48.1.75Z"/>
      <path d="M37.6,34.06c-.16.55-.45,1.09-.81,1.55-.17.24-.37.45-.57.65-.1.1-.2.2-.3.29-.1.09-.2.17-.3.25-.39.33-.78.55-1.06.72-.14.08-.25.13-.33.17-.08.04-.12.06-.12.06,0,0-.04-.12-.07-.34-.04-.22-.08-.53-.08-.9-.01-.38,0-.81.08-1.26.04-.22.08-.46.14-.71.06-.24.14-.48.23-.73.38-.97.97-1.82,1.45-2.47.03-.04.06-.08.09-.12.03-.04.06-.08.08-.12.06-.07.11-.14.16-.21.1-.13.2-.24.28-.34.16-.19.26-.3.26-.3,0,0,.09.1.21.28.12.18.29.44.44.77.08.17.15.35.21.55.06.2.11.41.13.64.03.23.04.48.02.74-.02.25-.07.52-.14.8Z"/>
      <path d="M32.31,37.09c-.18.24-.4.46-.63.68-.24.19-.5.38-.76.54-.27.15-.55.29-.83.41-.28.11-.56.2-.82.28-.53.13-1,.22-1.35.24-.34.03-.55.03-.55.03,0,0,.02-.14.08-.37.06-.23.16-.55.31-.92.08-.18.16-.38.27-.58.05-.1.1-.2.16-.3.06-.1.12-.21.18-.32.13-.21.27-.42.43-.63.16-.2.32-.42.51-.62.74-.8,1.59-1.38,2.26-1.83.08-.05.17-.1.25-.15.08-.05.15-.1.22-.14.14-.09.27-.16.38-.23.21-.13.34-.19.34-.19,0,0,.05.13.12.35.07.22.14.54.18.93.04.39.03.83-.07,1.31-.1.49-.31.98-.67,1.48Z"/>
    </g>
    <path d="M41.17,4.83c.1.8.39,1.61.65,2.23.13.31.26.57.35.76.09.19.15.29.15.29,0,0,.28-.2.56-.61.28-.41.56-1.03.51-1.87-.04-.85-.42-1.73-.81-2.39-.1-.16-.19-.32-.28-.45-.09-.13-.18-.25-.25-.34-.15-.19-.24-.3-.24-.3,0,0-.22.27-.4.74-.09.23-.17.51-.22.84-.05.33-.06.69-.02,1.09Z"/>
    <path d="M44.57,10.68c-.14.88-.06,1.83.04,2.57.02.18.05.36.08.51.02.16.05.29.07.41.04.23.08.36.08.36,0,0,.35-.13.77-.48.21-.18.43-.41.63-.72.19-.3.37-.68.47-1.13.2-.91.06-1.97-.16-2.77-.1-.4-.23-.75-.33-.99-.09-.24-.16-.38-.16-.38,0,0-.08.05-.2.16-.12.11-.28.27-.45.49-.17.22-.35.49-.49.82-.15.33-.28.72-.35,1.15Z"/>
    <path d="M46.34,17.24c-.41.9-.6,1.93-.75,2.73-.04.2-.06.39-.09.56-.03.17-.05.32-.07.44-.03.25-.04.4-.04.4,0,0,.1,0,.28-.04.17-.03.42-.09.69-.2.28-.11.59-.28.9-.54.31-.26.6-.6.86-1.07.51-.93.67-2.13.67-3.07,0-.24,0-.46-.02-.65-.01-.2-.03-.37-.05-.52-.04-.29-.07-.46-.07-.46,0,0-.39.15-.86.52-.24.19-.5.43-.75.75-.25.31-.49.68-.69,1.13Z"/>
    <path d="M46.07,24.11c-.74.79-1.3,1.77-1.75,2.54-.05.1-.1.19-.15.28-.05.09-.1.18-.14.26-.09.16-.16.31-.23.43-.12.25-.2.39-.2.39,0,0,.11.04.3.07.19.03.46.06.79.05.64-.04,1.54-.24,2.39-1.01.85-.77,1.47-1.95,1.8-2.95.09-.25.15-.49.21-.7.05-.22.1-.41.13-.57.06-.32.08-.52.08-.52,0,0-.11,0-.3.04-.19.04-.46.1-.77.22-.3.12-.67.29-1.03.53-.18.12-.37.26-.55.41-.19.15-.38.33-.56.53Z"/>
    <path d="M43.6,30.56c-.13.07-.25.15-.38.22-.13.08-.25.16-.37.24-.24.17-.47.34-.7.52-.11.09-.22.18-.33.27-.05.05-.11.09-.16.14-.05.04-.11.09-.16.13-.21.17-.4.35-.58.51-.37.31-.66.61-.88.81-.22.21-.34.33-.34.33,0,0,.1.07.28.17.18.1.45.22.79.32.34.1.76.18,1.23.16.47-.02,1.01-.11,1.58-.37,1.15-.5,2.19-1.52,2.87-2.44.17-.23.32-.46.45-.66.13-.2.25-.38.33-.54.17-.31.26-.51.26-.51,0,0-.12-.03-.33-.06-.21-.03-.5-.05-.86-.03-.18,0-.37.03-.58.06-.21.03-.43.08-.66.14-.23.06-.47.14-.71.24-.25.09-.5.21-.75.35Z"/>
    <path d="M39.21,35.95c-.62.11-1.24.3-1.82.5-.29.11-.58.2-.85.31-.13.05-.27.11-.4.16-.13.05-.26.1-.38.14-.48.2-.9.36-1.19.5-.15.07-.27.11-.35.14-.08.04-.12.05-.12.05,0,0,.07.11.21.28.14.17.36.4.67.63.3.23.69.45,1.18.61.25.08.51.14.81.18.29.03.62.05.96.02.34-.03.69-.09,1.04-.18.34-.1.68-.22,1.02-.35.33-.15.65-.31.95-.48.3-.17.58-.36.84-.54.07-.05.13-.09.19-.13.06-.05.12-.09.18-.14.12-.09.22-.18.33-.26.2-.17.39-.32.52-.46.28-.27.44-.44.44-.44,0,0-.11-.07-.32-.17-.21-.1-.5-.21-.88-.31-.19-.05-.39-.09-.62-.12-.23-.03-.47-.06-.72-.07-.26-.01-.52,0-.81.01-.29.02-.59.05-.89.11Z"/>
    <path d="M37.18,3.27c.73.61,1.52,1.06,2.15,1.38.16.08.31.15.44.21.13.06.25.12.34.15.19.08.31.12.31.12,0,0-.02-.12-.06-.33-.02-.11-.05-.23-.09-.38-.04-.15-.1-.3-.16-.48-.26-.69-.76-1.59-1.6-2.3-.1-.08-.21-.17-.32-.25-.11-.08-.22-.15-.33-.21-.11-.07-.22-.13-.33-.18-.11-.05-.23-.1-.34-.15-.11-.05-.22-.09-.33-.13-.11-.03-.22-.07-.32-.09-.1-.03-.2-.06-.3-.08-.1-.02-.2-.03-.29-.05-.18-.02-.35-.04-.5-.05-.15,0-.28,0-.38,0-.21,0-.33.02-.33.02,0,0,.07.11.19.28.06.08.14.18.23.3.08.11.18.25.29.38.43.55,1,1.23,1.72,1.84Z"/>
    <path d="M33.19,39.59c-.34-.07-.68-.11-1.02-.14-.34-.04-.68-.07-1.01-.08-.33-.03-.66-.04-.97-.04-.31-.02-.61-.03-.89-.03-.56-.03-1.04-.02-1.38-.04-.34,0-.55,0-.55,0,0,0,.02.14.08.37.06.23.18.54.37.9.1.18.22.37.37.56.07.1.16.19.24.29.09.09.18.18.29.28.21.18.45.36.73.52.28.16.6.29.96.41.36.12.74.19,1.14.24.4.06.8.06,1.2.05.4,0,.8-.05,1.18-.11.39-.05.75-.14,1.09-.23.17-.04.34-.09.49-.14.15-.05.3-.1.44-.15.28-.1.53-.19.73-.28.4-.18.63-.3.63-.3,0,0-.08-.11-.26-.28-.17-.17-.44-.39-.79-.62-.35-.22-.79-.47-1.3-.68-.51-.2-1.11-.39-1.78-.5Z"/>
  </g>
</svg>